<?xml version="1.0" encoding="UTF-8"?>
<!-- Do not edit this file with editors other than diagrams.net -->
<!DOCTYPE svg PUBLIC "-//W3C//DTD SVG 1.1//EN" "http://www.w3.org/Graphics/SVG/1.1/DTD/svg11.dtd">
<svg xmlns="http://www.w3.org/2000/svg" xmlns:xlink="http://www.w3.org/1999/xlink" version="1.1" width="121px" height="41px" viewBox="-0.5 -0.5 121 41" content="&lt;mxfile host=&quot;drawio-plugin&quot; modified=&quot;2024-01-05T16:37:15.581Z&quot; agent=&quot;5.0 (X11; Linux x86_64) AppleWebKit/537.36 (KHTML, like Gecko) Chrome/111.0.0.0 Safari/537.36&quot; etag=&quot;Go22DGeiiETGegH5ekjt&quot; version=&quot;20.5.3&quot; type=&quot;embed&quot;&gt;&lt;diagram id=&quot;23iRSUPoRavnBvh4doch&quot; name=&quot;Page-1&quot;&gt;jZNLb4MwDIB/DXcgXdceV0a3y04cdo6IS6IGjFIz6H79Akl4qKq0HJD92U78ImJZPXwY3sovFKCjNBZDxN6jNGXxi/2O4O5Aut85UBklHEoWUKhf8DD2tFMCbhtHQtSk2i0ssWmgpA3jxmC/dbug3r7a8goeQFFy/Ui/lSDp6CF9XfgnqEqGl5P90VlqHpx9JTfJBfYrxPKIZQaRnFQPGeixd6EvLu78xDonZqCh/wSkLuCH687X5vOieyjWYNcIGP3jiJ16qQiKlpejtbfTtUxSra2WWPF2BSqlVy5K6ww1mukidpzOyLGhFb9MZwwmg1dYWeJ4n7/Z1E8+SzAEw9NKk7l/du8AayBzty4h4OBbPu+c1/tlgkkYi1xNb+cZ90tTzVcvfbWCb21QlxFOttV/wPI/&lt;/diagram&gt;&lt;/mxfile&gt;"><defs/><g><rect x="0" y="0" width="120" height="40" fill="none" stroke="none" pointer-events="all"/><path d="M 0.18 -0.21 C 0.18 -0.21 0.18 -0.21 0.18 -0.21 M 0.18 -0.21 C 0.18 -0.21 0.18 -0.21 0.18 -0.21 M -0.08 6.19 C 2.59 3.44 3.73 1.16 5.17 0.15 M -0.08 6.19 C 1.18 4.95 2.38 2.62 5.17 0.15 M 0.32 11.83 C 3.79 6.75 7.97 4.8 10.81 -0.25 M 0.32 11.83 C 2.33 9 5.95 5.81 10.81 -0.25 M 0.05 18.23 C 3.86 13.31 8.14 9.1 15.8 0.11 M 0.05 18.23 C 4.64 13.44 9.71 8.02 15.8 0.11 M -0.21 24.63 C 6.42 13.74 17.47 5.45 21.44 -0.28 M -0.21 24.63 C 6.12 16.25 13.4 8.9 21.44 -0.28 M 0.19 30.27 C 11.79 18.48 18.18 8.52 26.43 0.08 M 0.19 30.27 C 7.3 23.79 13.24 15.5 26.43 0.08 M -0.07 36.67 C 10.88 24.59 23.08 9.35 32.07 -0.31 M -0.07 36.67 C 12.41 23.48 23.26 10.58 32.07 -0.31 M 1.63 40.8 C 11.8 31.6 17.81 21.33 37.06 0.05 M 1.63 40.8 C 8.64 31.5 17.5 22.15 37.06 0.05 M 6.62 41.16 C 18.62 29.17 29.19 15.95 42.7 -0.35 M 6.62 41.16 C 14.56 32.8 22 23.43 42.7 -0.35 M 11.61 41.52 C 25.64 26.88 36.15 12.29 47.69 0.01 M 11.61 41.52 C 22.98 28.97 34.17 14.86 47.69 0.01 M 17.25 41.13 C 29.54 26.48 40.23 15.27 52.68 0.37 M 17.25 41.13 C 24.43 31.45 33.54 22.89 52.68 0.37 M 22.24 41.49 C 32.14 30.64 41.5 19.95 58.32 -0.02 M 22.24 41.49 C 33.08 29.97 45.15 17.11 58.32 -0.02 M 27.88 41.09 C 41.73 24.33 56.19 8.33 63.31 0.34 M 27.88 41.09 C 39.24 29.03 49.71 16.3 63.31 0.34 M 32.87 41.45 C 43.24 27.15 56.04 16.17 68.95 -0.06 M 32.87 41.45 C 42.16 32.63 49.65 22.93 68.95 -0.06 M 38.51 41.06 C 50.52 25.35 66.48 12.48 73.94 0.3 M 38.51 41.06 C 47.74 31.45 56.39 21.71 73.94 0.3 M 43.5 41.42 C 57.69 26.93 69.49 9.03 79.58 -0.09 M 43.5 41.42 C 54.08 28.5 64.42 18.21 79.58 -0.09 M 49.14 41.02 C 60.47 29.86 69.75 17.35 84.57 0.27 M 49.14 41.02 C 55.81 31.25 64.51 23.86 84.57 0.27 M 54.13 41.38 C 66.31 27.78 74.59 14.99 90.21 -0.13 M 54.13 41.38 C 62.89 31.46 73.45 20.15 90.21 -0.13 M 59.77 40.99 C 66.55 33.24 76.22 22.76 95.2 0.23 M 59.77 40.99 C 68.74 29.82 78.57 18.83 95.2 0.23 M 64.76 41.35 C 74.88 31.29 80.83 22.88 100.84 -0.16 M 64.76 41.35 C 72.66 31.81 81.01 22.31 100.84 -0.16 M 70.4 40.95 C 82.36 26.66 94.53 11.21 105.83 0.2 M 70.4 40.95 C 83.37 24.54 98.27 9.16 105.83 0.2 M 75.39 41.31 C 83.78 27.46 95.22 15.03 111.47 -0.2 M 75.39 41.31 C 89.4 24.63 102.79 9.47 111.47 -0.2 M 81.03 40.92 C 93.84 26.23 105.61 13.68 116.46 0.16 M 81.03 40.92 C 90.06 29.49 101.89 16.76 116.46 0.16 M 86.02 41.28 C 96.75 25.66 111.77 11.19 120.79 1.28 M 86.02 41.28 C 99.79 25.4 112.05 10.49 120.79 1.28 M 91.66 40.88 C 104.64 26.21 115.72 12.5 121.18 6.92 M 91.66 40.88 C 98.52 32.17 106.46 22.7 121.18 6.92 M 96.65 41.24 C 104.52 33.02 109.34 27.22 120.92 13.32 M 96.65 41.24 C 103.15 33.05 110.96 23.38 120.92 13.32 M 102.29 40.85 C 110.47 32.53 117.51 25.34 121.32 18.96 M 102.29 40.85 C 106.59 36.72 110.63 30.59 121.32 18.96 M 107.28 41.21 C 111.18 33.95 114.97 30.4 121.06 25.36 M 107.28 41.21 C 112.24 34.69 118.8 29.52 121.06 25.36 M 112.92 40.82 C 114.04 38.34 116.39 34.46 120.79 31.76 M 112.92 40.82 C 115.12 37.6 117.56 35.73 120.79 31.76 M 117.91 41.18 C 119.11 40.24 119.62 38.85 121.19 37.4 M 117.91 41.18 C 119.13 39.98 120.05 38.99 121.19 37.4" fill="none" stroke="#999999" stroke-width="0.5" stroke-linejoin="round" stroke-linecap="round" stroke-miterlimit="10" pointer-events="all"/><path d="M 0 0 C 25.48 -2.42 46.19 -2.28 120 0 M 0 0 C 27.67 0.46 55.07 1.14 120 0 M 120 0 C 119.59 11.83 119.31 21.64 120 40 M 120 0 C 120.15 16.15 118.82 32.33 120 40 M 120 40 C 86.73 41.04 52.99 38.45 0 40 M 120 40 C 81.97 39.44 45.24 39.32 0 40 M 0 40 C -1.91 24.43 1.06 7.06 0 0 M 0 40 C 0.1 29.45 -0.42 17.63 0 0" fill="none" stroke="#006eaf" stroke-linejoin="round" stroke-linecap="round" stroke-miterlimit="10" pointer-events="all"/></g></svg>