<?xml version="1.0" encoding="UTF-8"?>
<!-- Do not edit this file with editors other than diagrams.net -->
<!DOCTYPE svg PUBLIC "-//W3C//DTD SVG 1.1//EN" "http://www.w3.org/Graphics/SVG/1.1/DTD/svg11.dtd">
<svg xmlns="http://www.w3.org/2000/svg" xmlns:xlink="http://www.w3.org/1999/xlink" version="1.1" width="137px" height="141px" viewBox="-0.5 -0.5 137 141" content="&lt;mxfile host=&quot;drawio-plugin&quot; modified=&quot;2024-01-05T16:16:48.973Z&quot; agent=&quot;5.0 (X11; Linux x86_64) AppleWebKit/537.36 (KHTML, like Gecko) Chrome/111.0.0.0 Safari/537.36&quot; etag=&quot;jn4rHTsTxv9WSftiN2g5&quot; version=&quot;20.5.3&quot; type=&quot;embed&quot;&gt;&lt;diagram id=&quot;23iRSUPoRavnBvh4doch&quot; name=&quot;Page-1&quot;&gt;7ZfNcpswFIWfhm1GIMD2MiZuu+lMZ7zoWkEXo4lAjBAx7tNXgPgzdnEavIpZeKQj3SvpO9casHCQlN8lyeKfggK3HERLC79YjuM5WP9WwqkRXM8IB8loI9m9sGd/wIjIqAWjkI8mKiG4YtlYDEWaQqhGGpFSHMfTIsHHq2bkABNhHxI+VX8zquJGXTurXv8B7BC3K9v+phlJSDvZnCSPCRXHgYR3Fg6kEKppJWUAvGLXcmnivl0Z7TYmIVW3BDhNwDvhhTmb2Zc6tYfVW8yqZkikDtoeY6Zgn5Gw0o7aXq3FKuG6Z+tm/gYqjE0nYpwHggtZZ8L2K7HBqXSRqoEe1U8VrKR4g8EIQv7uWe99a7YJUkF59ah2B1AXHogElDzpKSYA+4a5KTrcVtNxYKGR4qF7yIjEVM2hS92D1Q3D9jJn9wOcpcjzz4FGyEMQfQy0/bINlgHtemPQLpqCdv0paG8Bzv7tnKHU626pKF7rEXseOcmz5jaJWAn03IMlSnSzGZeoMyWHL5QoXoDcep4cpPS5uj11LxUpVPRIHlckagDD4qzrq70bq7+8FEVK66moYwV0cs3OkhqQ8C6QaDUJnCj2Pk5/CY9Z4ZdgeuHeiJU3NsLbPK3OsuSikCGYwOEVe5bLdeZzKSIPoCa5as+6w99kY3upPXy86OMKPaHh4y/k6UzeBf21H/7+w9/1nfydybugvze8kX1hfzd38ncm74L+4oe/1/3Vr4p38Xcu73/7q7v9x1ozvf/ixbu/&lt;/diagram&gt;&lt;/mxfile&gt;"><defs/><g><path d="M 30 0 L 80 0 L 80 100 L 0 100 L 0 30 Z" fill="none" stroke="none" pointer-events="all"/><path d="M -0.24 30.27 C -0.24 30.27 -0.24 30.27 -0.24 30.27 M -0.24 30.27 C -0.24 30.27 -0.24 30.27 -0.24 30.27 M 0.16 35.91 C 7.76 29.31 15.05 20.58 30.99 0.44 M 0.16 35.91 C 13.19 21.85 24.13 8.01 30.99 0.44 M -0.1 42.31 C 10.51 32.33 20.88 18.01 35.98 0.8 M -0.1 42.31 C 10.77 29.89 23 16.75 35.98 0.8 M 0.29 47.95 C 14.7 29.53 34.03 9.16 41.62 0.41 M 0.29 47.95 C 11.67 35.42 22.45 21.54 41.62 0.41 M 0.03 54.35 C 18.82 35.97 34.53 14.8 46.61 0.77 M 0.03 54.35 C 10.41 42.66 23.11 29.94 46.61 0.77 M -0.23 60.75 C 21.03 37.54 38.07 15.53 52.25 0.37 M -0.23 60.75 C 13.44 45.85 26.86 28.02 52.25 0.37 M 0.16 66.39 C 18.84 44.23 37.94 25.84 57.24 0.73 M 0.16 66.39 C 12.86 50.78 27.69 34.92 57.24 0.73 M -0.1 72.79 C 17.55 51.8 35.96 31.33 62.88 0.34 M -0.1 72.79 C 18.2 52.62 36.45 32.04 62.88 0.34 M 0.3 78.43 C 23.98 48.41 51.65 21.01 67.87 0.7 M 0.3 78.43 C 20.98 53.67 42.49 29.95 67.87 0.7 M 0.04 84.83 C 28.83 53.34 52.54 23.45 72.86 1.06 M 0.04 84.83 C 18.35 65.49 35.81 43.95 72.86 1.06 M -0.23 91.23 C 27.01 60.6 55 27.18 78.5 0.66 M -0.23 91.23 C 28.93 59.56 55.94 28.07 78.5 0.66 M 0.17 96.87 C 21.17 74.8 38.14 51.92 82.18 2.53 M 0.17 96.87 C 17.61 74.91 37.12 53.31 82.18 2.53 M 1.88 101.01 C 28.15 73.16 52.85 43.69 82.57 8.18 M 1.88 101.01 C 19.46 81.78 36.05 61.87 82.57 8.18 M 6.86 101.37 C 34.34 71.09 58.44 40.86 82.31 14.57 M 6.86 101.37 C 30.23 74.61 53.57 46.52 82.31 14.57 M 11.85 101.73 C 35.16 74.36 56.88 50.46 82.7 20.22 M 11.85 101.73 C 26.76 82.94 43.69 65.38 82.7 20.22 M 17.49 101.33 C 35.07 81.82 51.81 62.65 82.44 26.62 M 17.49 101.33 C 37.24 79.84 57.95 57.04 82.44 26.62 M 22.48 101.69 C 45.66 74.11 69.57 47.24 82.18 33.01 M 22.48 101.69 C 41.41 80.85 59.32 59.55 82.18 33.01 M 28.12 101.3 C 44.17 80.33 62.82 62.61 82.58 38.66 M 28.12 101.3 C 41.85 87.59 53.72 72.85 82.58 38.66 M 33.11 101.66 C 50.23 80.12 71.22 61.47 82.31 45.05 M 33.11 101.66 C 45.9 88.13 58.02 74.41 82.31 45.05 M 38.75 101.26 C 55.92 83.31 70.75 61.91 82.71 50.7 M 38.75 101.26 C 51.65 85.72 64.3 72.78 82.71 50.7 M 43.74 101.62 C 56.09 89.3 66.36 75.66 82.45 57.1 M 43.74 101.62 C 51.11 91.01 60.54 82.79 82.45 57.1 M 49.38 101.23 C 60.55 88.78 67.82 77.15 82.19 63.49 M 49.38 101.23 C 57.29 92.27 67.03 81.9 82.19 63.49 M 54.37 101.59 C 59.6 95.57 67.78 86.82 82.58 69.14 M 54.37 101.59 C 61.45 92.65 69.41 83.82 82.58 69.14 M 60.01 101.19 C 66.88 94.64 69.68 89.85 82.32 75.53 M 60.01 101.19 C 64.77 95.31 69.9 89.53 82.32 75.53 M 65 101.55 C 70.8 94.39 76.87 85.97 82.71 81.18 M 65 101.55 C 71.11 92.94 79.19 85.41 82.71 81.18 M 70.64 101.16 C 72.27 95.86 76.41 91.74 82.45 87.57 M 70.64 101.16 C 75.44 95.35 79.53 90.88 82.45 87.57 M 75.63 101.52 C 78.43 98.31 80.74 96.14 82.19 93.97 M 75.63 101.52 C 76.99 99.61 79.64 96.99 82.19 93.97" fill="none" stroke="#1ba1e2" stroke-width="0.5" stroke-linejoin="round" stroke-linecap="round" stroke-miterlimit="10" pointer-events="all"/><path d="M 30 0 M 30 0 C 46.5 -1.36 66.99 -1.49 80 0 M 30 0 C 49.26 -0.71 67.26 -0.53 80 0 M 80 0 C 82.12 37.7 81.64 76.45 80 100 M 80 0 C 79.07 25.32 79.52 49.85 80 100 M 80 100 C 61.51 99.36 39.73 100.68 0 100 M 80 100 C 54.63 100.98 30.48 99.86 0 100 M 0 100 C 1.68 74.28 1.82 49.64 0 30 M 0 100 C -0.33 85.44 -0.43 68.81 0 30 M 0 30 C 9.26 17.96 18.39 9.76 30 0 M 0 30 C 11.4 17.93 24.42 7.12 30 0" fill="none" stroke="#006eaf" stroke-linejoin="round" stroke-linecap="round" stroke-miterlimit="10" pointer-events="all"/><path d="M 90 110.4 L 108.4 110.4 L 108.4 90 L 117.6 90 L 117.6 110.4 L 136 110.4 L 136 119.6 L 117.6 119.6 L 117.6 140 L 108.4 140 L 108.4 119.6 L 90 119.6 Z" fill="none" stroke="none" pointer-events="all"/><path d="M 90.26 110.1 C 90.26 110.1 90.26 110.1 90.26 110.1 M 90.26 110.1 C 90.26 110.1 90.26 110.1 90.26 110.1 M 90 116.5 C 91.29 113.9 93.52 112.52 95.25 110.46 M 90 116.5 C 92.23 114.32 93.44 112.15 95.25 110.46 M 110.99 92.35 C 110.99 92.35 110.99 92.35 110.99 92.35 M 110.99 92.35 C 110.99 92.35 110.99 92.35 110.99 92.35 M 91.71 120.63 C 93.87 117.86 96.44 113.58 100.89 110.07 M 91.71 120.63 C 94.77 116.79 98.1 111.97 100.89 110.07 M 110.73 98.75 C 113.25 96.79 115.45 93.32 117.95 90.44 M 110.73 98.75 C 111.92 96.95 114.59 94.91 117.95 90.44 M 96.69 120.99 C 100.3 116.69 103.54 113.85 105.88 110.43 M 96.69 120.99 C 100.46 117.42 103.73 112.49 105.88 110.43 M 111.13 104.39 C 113.08 101.72 114.96 99.34 118.34 96.09 M 111.13 104.39 C 112.86 102.33 113.87 100.67 118.34 96.09 M 102.34 120.6 C 106.5 113.79 110.88 108.07 118.08 102.48 M 102.34 120.6 C 105.04 115.84 108.61 111.76 118.08 102.48 M 108.63 119.45 C 112.09 117.61 112.59 113.56 117.82 108.88 M 108.63 119.45 C 112.36 116.23 115.42 112.66 117.82 108.88 M 108.37 125.85 C 112.09 121.24 112.08 120.63 120.18 112.26 M 108.37 125.85 C 111.23 121.93 116.37 117.9 120.18 112.26 M 108.77 131.49 C 111.91 128.32 115.39 125.27 118.61 120.17 M 108.77 131.49 C 112.01 127.12 115.28 123.31 118.61 120.17 M 118.61 120.17 C 121.43 116.73 123.48 115.19 125.17 112.62 M 118.61 120.17 C 119.66 118.9 121.1 117.37 125.17 112.62 M 108.51 137.89 C 109.86 134.75 111.5 132.9 118.35 126.57 M 108.51 137.89 C 111.18 133.17 114.85 130.36 118.35 126.57 M 123.6 120.53 C 126.16 118.75 128.31 116.5 130.81 112.23 M 123.6 120.53 C 126.5 117.03 129.21 114.78 130.81 112.23 M 110.21 142.02 C 113.63 137.21 115.27 134.74 118.74 132.21 M 110.21 142.02 C 113.54 138.77 116.31 135.44 118.74 132.21 M 129.24 120.13 C 130.28 117.05 132.45 116.44 137.11 111.08 M 129.24 120.13 C 131.2 117.66 133.84 114.81 137.11 111.08 M 115.86 141.63 C 116.52 140.6 117.04 140.46 118.48 138.61 M 115.86 141.63 C 116.6 140.87 117.13 139.89 118.48 138.61 M 134.23 120.49 C 134.66 119.93 135.92 118.76 136.85 117.48 M 134.23 120.49 C 134.6 120.01 135.32 119.35 136.85 117.48" fill="none" stroke="#0050ef" stroke-width="0.5" stroke-linejoin="round" stroke-linecap="round" stroke-miterlimit="10" pointer-events="all"/><path d="M 90 110.4 M 90 110.4 C 94.77 110.28 100.02 109.52 108.4 110.4 M 90 110.4 C 96.59 111.05 103.55 110.98 108.4 110.4 M 108.4 110.4 C 106.43 108.04 108.59 103.26 108.4 90 M 108.4 110.4 C 108.39 103.39 107.72 96.02 108.4 90 M 108.4 90 C 110.49 90.06 113.34 89.63 117.6 90 M 108.4 90 C 111.35 90.52 113.99 89.95 117.6 90 M 117.6 90 C 119.47 95.59 119.73 99.31 117.6 110.4 M 117.6 90 C 117.57 95.67 118.47 100.41 117.6 110.4 M 117.6 110.4 C 124.55 111.13 129.83 110.16 136 110.4 M 117.6 110.4 C 124.19 110.39 131.49 110.52 136 110.4 M 136 110.4 C 136.68 112.86 135.85 115.74 136 119.6 M 136 110.4 C 135.91 112.74 135.95 114.67 136 119.6 M 136 119.6 C 127.62 121.27 122.2 119.39 117.6 119.6 M 136 119.6 C 132.43 119.03 128.62 120 117.6 119.6 M 117.6 119.6 C 117.94 124.07 116.49 128.78 117.6 140 M 117.6 119.6 C 116.9 124.48 117.87 130.21 117.6 140 M 117.6 140 C 114.38 139.27 113.54 140.33 108.4 140 M 117.6 140 C 115.62 140.11 112.85 139.67 108.4 140 M 108.4 140 C 107.08 135.44 107.97 131.46 108.4 119.6 M 108.4 140 C 109.17 134.88 108.32 127.39 108.4 119.6 M 108.4 119.6 C 102.25 119.59 97.82 120.62 90 119.6 M 108.4 119.6 C 102.4 119.28 95.09 119.43 90 119.6 M 90 119.6 C 90.83 116.2 89.82 113.94 90 110.4 M 90 119.6 C 89.83 117.31 89.69 115 90 110.4" fill="none" stroke="#001dbc" stroke-linejoin="round" stroke-linecap="round" stroke-miterlimit="10" pointer-events="all"/><rect x="39" y="10" width="30" height="30" fill="none" stroke="none" pointer-events="all"/><rect x="41" y="12" width="26" height="26" fill="none" stroke="none" pointer-events="all"/><path d="M 38.7 9.46 L 68.62 9.57 L 70.06 40.85 L 38.31 38.7" fill="rgb(255, 255, 255)" stroke="none" pointer-events="all"/><path d="M 39 10 C 45.88 12.16 51.84 9.1 69 10 M 39 10 C 49.26 9.07 58.76 10.61 69 10 M 69 10 C 67.48 20.28 70.63 34.52 69 40 M 69 10 C 68.35 18.28 68.61 28.64 69 40 M 69 40 C 57.34 38.18 47.56 41.59 39 40 M 69 40 C 61.25 40.91 51.94 40.34 39 40 M 39 40 C 39.41 29.42 40.51 20.35 39 10 M 39 40 C 39.76 31.67 39.91 23.77 39 10" fill="none" stroke="rgb(0, 0, 0)" stroke-linejoin="round" stroke-linecap="round" stroke-miterlimit="10" pointer-events="all"/><path d="M 40.7 11.46 L 66.62 11.57 L 68.06 38.85 L 40.31 36.7" fill="rgb(255, 255, 255)" stroke="none" pointer-events="all"/><path d="M 41 12 C 47.08 14.13 52.24 11.07 67 12 M 41 12 C 49.98 11.08 58.21 12.63 67 12 M 67 12 C 65.46 20.73 68.61 33.43 67 38 M 67 12 C 66.36 19.08 66.62 28.25 67 38 M 67 38 C 56.65 36.17 48.19 39.58 41 38 M 67 38 C 60.36 38.91 52.15 38.34 41 38 M 41 38 C 41.41 28.85 42.5 21.22 41 12 M 41 38 C 41.75 30.79 41.9 24 41 12" fill="none" stroke="rgb(0, 0, 0)" stroke-linejoin="round" stroke-linecap="round" stroke-miterlimit="10" pointer-events="all"/><path d="M 15 49.71 L 65 49.71" fill="none" stroke="rgb(0, 0, 0)" stroke-width="2" stroke-miterlimit="10" stroke-dasharray="6 6" pointer-events="stroke"/><path d="M 15 60 L 65 60" fill="none" stroke="rgb(0, 0, 0)" stroke-width="2" stroke-miterlimit="10" stroke-dasharray="6 6" pointer-events="stroke"/><path d="M 15 70 L 65 70" fill="none" stroke="rgb(0, 0, 0)" stroke-width="2" stroke-miterlimit="10" stroke-dasharray="6 6" pointer-events="stroke"/><path d="M 15 80 L 65 80" fill="none" stroke="rgb(0, 0, 0)" stroke-width="2" stroke-miterlimit="10" stroke-dasharray="6 6" pointer-events="stroke"/><path d="M 15 90 L 65 90" fill="none" stroke="rgb(0, 0, 0)" stroke-width="2" stroke-miterlimit="10" stroke-dasharray="6 6" pointer-events="stroke"/></g></svg>