<?xml version="1.0" encoding="UTF-8"?>
<!-- Do not edit this file with editors other than diagrams.net -->
<!DOCTYPE svg PUBLIC "-//W3C//DTD SVG 1.1//EN" "http://www.w3.org/Graphics/SVG/1.1/DTD/svg11.dtd">
<svg xmlns="http://www.w3.org/2000/svg" xmlns:xlink="http://www.w3.org/1999/xlink" version="1.1" width="101px" height="61px" viewBox="-0.5 -0.5 101 61" content="&lt;mxfile host=&quot;drawio-plugin&quot; modified=&quot;2024-01-05T16:08:42.007Z&quot; agent=&quot;5.0 (X11; Linux x86_64) AppleWebKit/537.36 (KHTML, like Gecko) Chrome/111.0.0.0 Safari/537.36&quot; etag=&quot;VEP-lwPpCNE90StrLskv&quot; version=&quot;20.5.3&quot; type=&quot;embed&quot;&gt;&lt;diagram id=&quot;23iRSUPoRavnBvh4doch&quot; name=&quot;Page-1&quot;&gt;jZPBboMwDIafhjsha7seV9ptl5047BwRQ6IGjEI66J5+SWMKqKo0Dsj+bOP4d0h43owfVnTqCyWYJEvlmPBjkmV7tvHvAK4R7PY8gtpqGRGbQaF/gWBK9KIl9KtEh2ic7tawxLaF0q2YsBaHdVqFZt21EzU8gKIU5pF+a+lUpK/ZbuafoGs1dWbbfYw0YkqmSXolJA4LxE8Jzy2ii1Yz5mCCdpMuse79SfR+MAut+09BFgt+hLnQbHQud52G9UfsgtnrtjbwFuRL+EFq65XV2PrIAL1vdhiUdlB0ogzZg1+8Z8o1xnvMm/0ZXKnIqbQxORq0tx48TTcpVIFj6xa8uj2h2Fk8w6qCHQ+5j9AAYB2MT0Vgd2n9lQRswNmrT6EC/kLboOvIN+QP83JZSkwtFrslJug+1fdPz5J7g1Sf3Hm7t9jiF+GnPw==&lt;/diagram&gt;&lt;/mxfile&gt;"><defs/><g><path d="M 0 21 L 80 21 L 80 0 L 100 30 L 80 60 L 80 39 L 0 39 Z" fill="none" stroke="none" transform="rotate(180,50,30)" pointer-events="all"/><path d="M -0.1 21.11 C -0.1 21.11 -0.1 21.11 -0.1 21.11 M -0.1 21.11 C -0.1 21.11 -0.1 21.11 -0.1 21.11 M 0.3 26.76 C 1.55 26.09 2.72 24.6 5.54 20.72 M 0.3 26.76 C 2.62 24.42 4.18 22.12 5.54 20.72 M 0.03 33.15 C 3.45 31.06 6.54 25.58 10.53 21.08 M 0.03 33.15 C 3 29.71 7.01 25.83 10.53 21.08 M 0.43 38.8 C 4.87 31.94 14.07 23.22 16.17 20.68 M 0.43 38.8 C 4.87 34.25 8.66 28.42 16.17 20.68 M 5.42 39.16 C 12.24 34.11 16.24 26.41 21.16 21.05 M 5.42 39.16 C 8.47 35.73 13.83 31.45 21.16 21.05 M 11.06 38.76 C 18.69 30.81 22.5 24.01 26.8 20.65 M 11.06 38.76 C 14.92 34.89 18.6 28.27 26.8 20.65 M 16.05 39.12 C 21.24 31.83 27.3 28.43 31.79 21.01 M 16.05 39.12 C 19.18 34.86 24.31 30.16 31.79 21.01 M 21.03 39.48 C 24.84 34.57 29.12 30.35 36.78 21.37 M 21.03 39.48 C 25.62 34.7 30.69 29.28 36.78 21.37 M 26.68 39.09 C 31.11 30.66 40.03 24.83 42.42 20.98 M 26.68 39.09 C 31.16 32.82 36.6 27.58 42.42 20.98 M 31.66 39.45 C 39.39 32.1 41.87 26.63 47.41 21.34 M 31.66 39.45 C 36.25 35.87 39.59 30.56 47.41 21.34 M 37.31 39.05 C 42.53 33.52 49.16 24.67 53.05 20.94 M 37.31 39.05 C 43.91 32.38 49.08 26.02 53.05 20.94 M 42.29 39.41 C 47.88 35.66 49.26 30.71 58.04 21.3 M 42.29 39.41 C 44.9 35.46 49.26 31.29 58.04 21.3 M 47.94 39.02 C 53.42 34.26 57.56 28.44 63.68 20.91 M 47.94 39.02 C 51.48 35.62 54.75 31.04 63.68 20.91 M 80.74 1.28 C 80.74 1.28 80.74 1.28 80.74 1.28 M 80.74 1.28 C 80.74 1.28 80.74 1.28 80.74 1.28 M 52.92 39.38 C 59.09 31.8 63.65 27.64 68.67 21.27 M 52.92 39.38 C 55.81 34.76 60.57 31.2 68.67 21.27 M 81.13 6.93 C 81.7 6.33 82.23 5.74 83.1 4.66 M 81.13 6.93 C 81.7 6.39 82.48 5.65 83.1 4.66 M 58.57 38.99 C 64.84 31 71.64 23.82 74.31 20.87 M 58.57 38.99 C 63.79 34.05 68.22 28.26 74.31 20.87 M 80.87 13.33 C 82.02 11.24 83.94 10.34 85.46 8.04 M 80.87 13.33 C 82.18 12.37 82.89 11.18 85.46 8.04 M 63.55 39.35 C 68.26 31.97 77.05 27.35 79.3 21.23 M 63.55 39.35 C 67.7 35.33 71.39 31.3 79.3 21.23 M 81.27 18.97 C 84.04 16.78 85.5 12.93 87.83 11.42 M 81.27 18.97 C 83.18 16.35 85 15.06 87.83 11.42 M 69.2 38.95 C 76.04 32.89 80.99 25.36 90.19 14.8 M 69.2 38.95 C 72.78 32.87 78.27 29.17 90.19 14.8 M 74.18 39.31 C 80.87 31.94 83.72 25.4 92.55 18.18 M 74.18 39.31 C 78.31 34.58 84.43 28.38 92.55 18.18 M 79.83 38.92 C 82.25 36.06 87.71 30.42 94.92 21.56 M 79.83 38.92 C 83.48 34.02 88.01 29.13 94.92 21.56 M 82.85 41.54 C 87.85 36.99 88.85 34.27 97.28 24.94 M 82.85 41.54 C 85.8 37.75 89.09 34.08 97.28 24.94 M 82.58 47.94 C 88.16 41.04 94 32.88 99.64 28.32 M 82.58 47.94 C 88.44 39.61 96.26 32.38 99.64 28.32 M 82.98 53.58 C 86.48 45.64 92.84 39.05 102 31.7 M 82.98 53.58 C 90.54 44.5 97.36 36.91 102 31.7" fill="none" stroke="#0050ef" stroke-width="0.5" stroke-linejoin="round" stroke-linecap="round" stroke-miterlimit="10" transform="rotate(180,50,30)" pointer-events="all"/><path d="M 0 21 M 0 21 C 27 19.29 53.04 19.79 80 21 M 0 21 C 22.4 21.3 47.27 20.48 80 21 M 80 21 C 78.41 12.38 80.96 4.72 80 0 M 80 21 C 80.53 12.1 79.68 4.36 80 0 M 80 0 C 89.59 10.34 96.94 21.69 100 30 M 80 0 C 84.3 7.53 89.83 14.29 100 30 M 100 30 C 97.06 36.75 90.59 45.72 80 60 M 100 30 C 93.1 39.82 87.33 47.89 80 60 M 80 60 C 81.26 52.06 81.41 45.19 80 39 M 80 60 C 80.15 56.12 80.05 50.18 80 39 M 80 39 C 53.06 37.72 26.06 39.38 0 39 M 80 39 C 47.66 38.33 16.9 39.47 0 39 M 0 39 C -1.72 34 -1.58 26.91 0 21 M 0 39 C -0.33 32.75 -0.34 28.58 0 21" fill="none" stroke="#001dbc" stroke-linejoin="round" stroke-linecap="round" stroke-miterlimit="10" transform="rotate(180,50,30)" pointer-events="all"/></g></svg>