<?xml version="1.0" encoding="UTF-8"?>
<!-- Do not edit this file with editors other than diagrams.net -->
<!DOCTYPE svg PUBLIC "-//W3C//DTD SVG 1.1//EN" "http://www.w3.org/Graphics/SVG/1.1/DTD/svg11.dtd">
<svg xmlns="http://www.w3.org/2000/svg" xmlns:xlink="http://www.w3.org/1999/xlink" version="1.1" width="41px" height="82px" viewBox="-0.5 -0.5 41 82" content="&lt;mxfile host=&quot;drawio-plugin&quot; modified=&quot;2024-01-08T10:26:41.753Z&quot; agent=&quot;5.0 (X11; Linux x86_64) AppleWebKit/537.36 (KHTML, like Gecko) Chrome/111.0.0.0 Safari/537.36&quot; etag=&quot;My5bRiuFyI8_ZFnCwKPw&quot; version=&quot;20.5.3&quot; type=&quot;embed&quot;&gt;&lt;diagram id=&quot;23iRSUPoRavnBvh4doch&quot; name=&quot;Page-1&quot;&gt;3ZRNc4IwEIZ/DdcOJKj0KtX20pOHnlNYScbgMjEW7K9vMMvXWKce6kUOTPbZj2Tf7CTgadm8GlHJd8xBByzMm4C/BIyxKHH/Fpw8iJLYg8KonNAANuobCIZEjyqHwyTQImqrqinMcL+HzE6YMAbradgW9XTXShRwATaZ0Jf0Q+VWepqwxcDfQBWy2zmaP3tPKbpg6uQgRY71CPFVwFODaP2qbFLQrXadLj5vfcXbH8zA3t6SwHzCl9BH6o3OZU9ds0Zi+Xl0ii1rqSxsKpG1ntrdrGPSltpZkVv2vYStsQObSfJsldYpajTninw+X7L1ug2yBncw8oTuS1PnoWOBsdBcbS3qBXODBliCNScX0k0Zn/kUGjJX3Nv1cGUxITm6rYSYoCEp+sqDjm5BUv4uK39gWWP29LewbHYfYeNHFnZxg7DR/wjrzOGROftGLzVf/QA=&lt;/diagram&gt;&lt;/mxfile&gt;"><defs/><g><path d="M 20 0 L 40 40 L 20 80 L 0 40 Z" fill="none" stroke="none" pointer-events="all"/><path d="M 19.98 0.03 C 19.98 0.03 19.98 0.03 19.98 0.03 M 19.98 0.03 C 19.98 0.03 19.98 0.03 19.98 0.03 M 12.5 14.73 C 14.69 13.56 16.75 10.96 21.68 4.16 M 12.5 14.73 C 16.57 10.63 19.3 6.62 21.68 4.16 M 5.68 28.67 C 11.39 24.37 16.75 15.81 24.05 7.54 M 5.68 28.67 C 11.02 22.51 17.69 15.76 24.05 7.54 M 0.82 40.35 C 8.84 29.34 21.68 16.44 25.75 11.67 M 0.82 40.35 C 7.75 32.94 14.05 24.22 25.75 11.67 M 2.53 44.49 C 12.92 35.47 20.41 23.75 27.46 15.81 M 2.53 44.49 C 7.76 38.6 15.31 31.8 27.46 15.81 M 4.24 48.62 C 15.52 36.58 22.87 25.71 29.82 19.19 M 4.24 48.62 C 10.72 41.79 17.01 32.17 29.82 19.19 M 6.6 52 C 14.79 41.4 23.74 34.67 31.53 23.32 M 6.6 52 C 11.85 45.21 19.14 38.04 31.53 23.32 M 8.3 56.13 C 14.8 48.09 21.83 40.71 33.24 27.45 M 8.3 56.13 C 15.55 48.35 23.19 39.99 33.24 27.45 M 10.01 60.27 C 18.1 47.74 30.58 37.82 35.6 30.83 M 10.01 60.27 C 17.57 50.49 26.07 41.74 35.6 30.83 M 12.37 63.65 C 23.49 52.41 29.39 43.01 37.3 34.97 M 12.37 63.65 C 19.17 57.53 24.79 49.61 37.3 34.97 M 14.08 67.78 C 22.74 58.32 32.71 45.63 39.67 38.35 M 14.08 67.78 C 24.21 57.2 32.79 46.91 39.67 38.35 M 16.44 71.16 C 24.32 64.68 28.02 57.07 42.03 41.72 M 16.44 71.16 C 21.25 64.53 27.86 57.77 42.03 41.72 M 18.15 75.29 C 23.85 70.3 28.19 64.24 34.55 56.42 M 18.15 75.29 C 21.83 71.73 25.24 67 34.55 56.42 M 19.86 79.43 C 23.57 76.12 25.13 72.83 27.73 70.37 M 19.86 79.43 C 22.48 76.87 24.94 73.3 27.73 70.37" fill="none" stroke="#66b2ff" stroke-width="0.5" stroke-linejoin="round" stroke-linecap="round" stroke-miterlimit="10" pointer-events="all"/><path d="M 20 0 M 20 0 C 27.5 10.51 33.39 24.44 40 40 M 20 0 C 23.96 8.19 29.66 17.46 40 40 M 40 40 C 34.82 50.33 29.86 60.46 20 80 M 40 40 C 33.39 52.96 28.69 64.48 20 80 M 20 80 C 12.27 63.41 5.15 47.71 0 40 M 20 80 C 14.36 68.69 7.85 56.19 0 40 M 0 40 C 5.26 26.12 12.93 15.61 20 0 M 0 40 C 5.45 31.4 9.1 22.06 20 0" fill="none" stroke="#0000cc" stroke-linejoin="round" stroke-linecap="round" stroke-miterlimit="10" pointer-events="all"/><path d="M 20 0 L 32.5 40 L 20 80 L 7.5 40 Z" fill="none" stroke="none" pointer-events="all"/><path d="M 19.98 0.03 C 19.98 0.03 19.98 0.03 19.98 0.03 M 19.98 0.03 C 19.98 0.03 19.98 0.03 19.98 0.03 M 17.09 9.44 C 18.15 8.06 18.94 6.11 21.68 4.16 M 17.09 9.44 C 18.73 7.51 20.3 5.56 21.68 4.16 M 14.2 18.86 C 16.26 15.65 17.14 15.15 22.73 9.05 M 14.2 18.86 C 17.84 15.73 20.82 11.46 22.73 9.05 M 11.32 28.28 C 16.58 23.46 20.49 18.64 24.44 13.18 M 11.32 28.28 C 15.21 25.18 17.81 20.74 24.44 13.18 M 7.78 38.45 C 10.66 32.89 18.03 28.61 25.49 18.07 M 7.78 38.45 C 13.94 32.01 19.59 24.08 25.49 18.07 M 10.14 41.83 C 13.52 37.7 16.92 31.22 27.2 22.21 M 10.14 41.83 C 15.02 38.22 17.44 32.25 27.2 22.21 M 11.19 46.72 C 18.02 38.02 23.18 31.35 28.25 27.09 M 11.19 46.72 C 16.1 42.03 18.16 38.51 28.25 27.09 M 12.9 50.85 C 17.27 46.54 24 41.12 29.95 31.23 M 12.9 50.85 C 16.87 46.7 21.52 40.57 29.95 31.23 M 13.95 55.74 C 19.51 51.45 19.4 46.72 31.01 36.12 M 13.95 55.74 C 18.02 51.26 22.07 47.08 31.01 36.12 M 15.65 59.87 C 20.28 54.99 26.22 49.11 32.71 40.25 M 15.65 59.87 C 21.49 55.05 24.76 48.3 32.71 40.25 M 16.71 64.76 C 22.8 58.4 23.99 56.46 29.83 49.67 M 16.71 64.76 C 21.55 60.03 25.86 53.83 29.83 49.67 M 18.41 68.89 C 22.62 64.78 23.75 61.42 26.94 59.08 M 18.41 68.89 C 19.75 66.45 22.56 64.32 26.94 59.08 M 19.46 73.78 C 21.75 71.85 23.17 70.04 24.06 68.5 M 19.46 73.78 C 20.96 72.24 21.94 70.55 24.06 68.5 M 21.17 77.92 C 21.17 77.92 21.17 77.92 21.17 77.92 M 21.17 77.92 C 21.17 77.92 21.17 77.92 21.17 77.92" fill="none" stroke="#66b2ff" stroke-width="0.5" stroke-linejoin="round" stroke-linecap="round" stroke-miterlimit="10" pointer-events="all"/><path d="M 20 0 M 20 0 C 25.33 13.56 30.25 28.51 32.5 40 M 20 0 C 23.74 11.11 27.78 21.67 32.5 40 M 32.5 40 C 29.43 55.68 25.08 67.52 20 80 M 32.5 40 C 29.42 49.1 27.56 56.27 20 80 M 20 80 C 13.96 68.02 9.94 54.69 7.5 40 M 20 80 C 16.9 68.12 13.81 57.18 7.5 40 M 7.5 40 C 9.8 25.81 15.51 15.81 20 0 M 7.5 40 C 12.81 27.94 15.72 13.97 20 0" fill="none" stroke="#0000cc" stroke-linejoin="round" stroke-linecap="round" stroke-miterlimit="10" pointer-events="all"/><path d="M 20 0 L 27.5 40 L 20 80 L 12.5 40 Z" fill="none" stroke="none" pointer-events="all"/><path d="M 19.98 0.03 C 19.98 0.03 19.98 0.03 19.98 0.03 M 19.98 0.03 C 19.98 0.03 19.98 0.03 19.98 0.03 M 18.4 7.93 C 19.05 6.64 20.16 5.95 21.03 4.92 M 18.4 7.93 C 19.52 6.85 20.12 5.76 21.03 4.92 M 16.83 15.84 C 17.66 14.54 18.78 13.47 22.08 9.8 M 16.83 15.84 C 18.9 13.72 20.55 11.19 22.08 9.8 M 15.91 22.99 C 17.62 20.81 19.63 17.45 23.13 14.69 M 15.91 22.99 C 18.32 19.98 20.93 16.19 23.13 14.69 M 14.34 30.9 C 17.54 28.41 20.35 23.99 23.52 20.34 M 14.34 30.9 C 15.85 28.62 19.25 26.02 23.52 20.34 M 12.76 38.81 C 17.41 33.28 21.57 29.63 24.57 25.22 M 12.76 38.81 C 17.61 34.22 21.81 27.87 24.57 25.22 M 15.13 42.19 C 17.97 38.31 20.7 34.84 25.62 30.11 M 15.13 42.19 C 17.66 39.19 19.12 36.79 25.62 30.11 M 16.18 47.08 C 18.86 42.36 21.75 38.5 26.67 35 M 16.18 47.08 C 17.88 43.8 20.28 41.06 26.67 35 M 17.23 51.96 C 21.17 49.87 21.75 45.23 27.73 39.89 M 17.23 51.96 C 21.49 48.28 24.98 44.21 27.73 39.89 M 17.62 57.61 C 20.3 54.28 20.3 53.84 26.15 47.8 M 17.62 57.61 C 19.69 54.78 23.4 51.87 26.15 47.8 M 18.67 62.5 C 20.56 60.6 22.64 58.77 24.58 55.7 M 18.67 62.5 C 20.62 59.87 22.58 57.59 24.58 55.7 M 19.72 67.38 C 21.13 65.66 22.16 64.89 23 63.61 M 19.72 67.38 C 20.25 66.75 20.97 65.98 23 63.61 M 20.77 72.27 C 20.87 72.06 20.97 71.94 21.43 71.52 M 20.77 72.27 C 20.95 71.96 21.2 71.77 21.43 71.52 M 20.51 78.67 C 20.98 78.35 21.37 77.94 21.83 77.16 M 20.51 78.67 C 21.04 78.03 21.53 77.63 21.83 77.16" fill="none" stroke="#66b2ff" stroke-width="0.5" stroke-linejoin="round" stroke-linecap="round" stroke-miterlimit="10" pointer-events="all"/><path d="M 20 0 M 20 0 C 22.9 12.4 23.41 28.36 27.5 40 M 20 0 C 22.66 14.02 24.98 27.89 27.5 40 M 27.5 40 C 23.65 49.34 21.81 62.89 20 80 M 27.5 40 C 23.99 53.49 21.83 66.3 20 80 M 20 80 C 17.99 68.41 15.41 61.45 12.5 40 M 20 80 C 18.43 69.84 15.77 58.48 12.5 40 M 12.5 40 C 12.69 29.53 17.31 16.05 20 0 M 12.5 40 C 13.1 32.35 15.5 23.74 20 0" fill="none" stroke="#0000cc" stroke-linejoin="round" stroke-linecap="round" stroke-miterlimit="10" pointer-events="all"/></g></svg>